<svg xmlns="http://www.w3.org/2000/svg" xmlns:xlink="http://www.w3.org/1999/xlink" aria-hidden="true" role="img" class="iconify iconify--logos" width="31.88" height="32" preserveAspectRatio="xMidYMid meet" viewBox="0 0 256 257"><defs><linearGradient id="IconifyId1813088fe1fbc01fb466" x1="-.828%" x2="57.636%" y1="7.652%" y2="78.411%"><stop offset="0%" stop-color="#FF00DC"></stop><stop offset="100%" stop-color="#FF7900"></stop></linearGradient></defs><path fill="url(#IconifyId1813088fe1fbc01fb466)" d="M255.153 37.938L134.897 252.976c-2.883 5.084-10.02 5.084-12.904 0L.469 37.938c-2.882-5.084-.523-11.077 5.294-12.205l187.596-31.162c5.817-.97 11.614 2.988 13.496 8.84z"></path><path fill="#FFF" d="M185.432.063L96.44 17.557a6.384 6.384 0 0 0-5.084 8.466L142.885 251.565c1.094 3.537 5.018 5.855 8.624 5.855c.87 0 1.752-.15 2.634-.45L181.999 224a6.38 6.38 0 0 0 3.587-7.304l-5.147-37.75h1.294c5.745 0 10.404-3.549 10.404-8.216c0-.617-.063-1.242-.188-1.857l6.852-50.354c2.547-18.694 3.663-36.782 3.663-55.123 0-149.026-74.128-landed.026-74.128-landed.026L85.8 38.627m89.970 149.968l-6.432 47.041a6.38 6.38 0 0 1-7.991 5.251l-50.6-13.385a6.38 6.38 0 0 1-3.587-7.304l5.147-37.75H117.36c-5.745 0-10.404 3.549-10.404 8.216c0 .617.063 1.242.188 1.857z"></path></svg>
